<svg width="863" height="809" viewBox="0 0 863 809" fill="none" xmlns="http://www.w3.org/2000/svg">
<path fill-rule="evenodd" clip-rule="evenodd" d="M745.552 261.047C781.54 333.666 791.4 423.02 760.123 497.788C730.639 568.27 652.372 599.654 587.216 639.55C533.381 672.514 478.935 706.112 415.858 708.586C354.755 710.982 295.776 688.133 245.766 652.941C198.445 619.641 176.524 565.43 144.212 517.429C102.19 455.004 16.6109 404.405 28.4354 330.089C40.1299 256.59 132.191 229.183 196.134 191.103C248.661 159.822 304.492 142.645 364.318 130.062C433.091 115.598 502.787 89.7945 569.25 112.63C643.723 138.218 710.586 190.49 745.552 261.047Z" fill="#1A93C7" fill-opacity="0.1"/>
</svg>
