<svg width="689" height="830" viewBox="0 0 689 830" fill="none" xmlns="http://www.w3.org/2000/svg">
<path fill-rule="evenodd" clip-rule="evenodd" d="M563.148 129.875C624.607 169.717 587.475 268.898 602.471 340.589C613.317 392.436 649.579 439.451 638.752 491.301C627.9 543.272 581.387 576.526 545.109 615.29C504.655 658.515 472.332 714.138 415.31 730.055C353.898 747.197 286.294 734.235 230.676 703.061C174.559 671.609 130.483 619.672 109.729 558.782C89.992 500.875 102.513 438.516 120.585 380.068C137.29 326.045 164.817 275.848 208.366 239.779C250.732 204.689 306.349 198.966 358.895 182.688C427.755 161.357 502.659 90.6621 563.148 129.875Z" fill="#BC3A80" fill-opacity="0.1"/>
</svg>
