<svg width="100" height="100" viewBox="0 0 100 100" fill="none" xmlns="http://www.w3.org/2000/svg">
<path d="M50 100C43.2292 100 36.7513 98.6816 30.5664 96.0449C24.3815 93.4082 19.0592 89.86 14.5996 85.4004C10.14 80.9408 6.5918 75.6185 3.95508 69.4336C1.31836 63.2487 0 56.7708 0 50C0 43.2292 1.31836 36.7513 3.95508 30.5664C6.5918 24.3815 10.14 19.0592 14.5996 14.5996C19.0592 10.14 24.3815 6.5918 30.5664 3.95508C36.7513 1.31836 43.2292 0 50 0C56.7708 0 63.2487 1.31836 69.4336 3.95508C75.6185 6.5918 80.9408 10.14 85.4004 14.5996C89.86 19.0592 93.4082 24.3815 96.0449 30.5664C98.6816 36.7513 100 43.2292 100 50C100 56.7708 98.6816 63.2487 96.0449 69.4336C93.4082 75.6185 89.86 80.9408 85.4004 85.4004C80.9408 89.86 75.6185 93.4082 69.4336 96.0449C63.2487 98.6816 56.7708 100 50 100ZM50 31.25C44.7917 31.25 40.3646 33.0892 36.7188 36.7676C33.0729 40.446 31.25 44.873 31.25 50.0488C31.25 55.2246 33.0729 59.6354 36.7188 63.2812C40.3646 66.9271 44.7754 68.75 49.9512 68.75C55.127 68.75 59.554 66.9271 63.2324 63.2812C66.9108 59.6354 68.75 55.2246 68.75 50.0488C68.75 44.873 66.9271 40.446 63.2812 36.7676C59.6354 33.0892 55.2083 31.25 50 31.25ZM50 62.5C46.5495 62.5 43.6035 61.2793 41.1621 58.8379C38.7207 56.3965 37.5 53.4505 37.5 50C37.5 46.5495 38.7207 43.6035 41.1621 41.1621C43.6035 38.7207 46.5495 37.5 50 37.5C53.4505 37.5 56.3965 38.7207 58.8379 41.1621C61.2793 43.6035 62.5 46.5495 62.5 50C62.5 53.4505 61.2793 56.3965 58.8379 58.8379C56.3965 61.2793 53.4505 62.5 50 62.5ZM49.9512 43.75C48.2259 43.75 46.7611 44.3685 45.5566 45.6055C44.3522 46.8424 43.75 48.3236 43.75 50.0488C43.75 51.7741 44.3522 53.2389 45.5566 54.4434C46.7611 55.6478 48.2259 56.25 49.9512 56.25C51.6764 56.25 53.1576 55.6478 54.3945 54.4434C55.6315 53.2389 56.25 51.7741 56.25 50.0488C56.25 48.3236 55.6315 46.8424 54.3945 45.6055C53.1576 44.3685 51.6764 43.75 49.9512 43.75Z" fill="white"/>
</svg>
